<?xml version="1.0" ?><svg style="enable-background:new 0 0 24 24;" version="1.1" viewBox="0 0 24 24" xml:space="preserve" xmlns="http://www.w3.org/2000/svg" xmlns:xlink="http://www.w3.org/1999/xlink"><style type="text/css">
	.st0{display:none;}
</style><g class="st0" id="grid"/><g id="icon"><path d="M21.984,0H2.016C0.904,0,0,0.904,0,2.016v19.969C0,23.096,0.904,24,2.016,24h19.969C23.096,24,24,23.096,24,21.984V2.016   C24,0.904,23.096,0,21.984,0z M23,21.984C23,22.544,22.544,23,21.984,23H2.016C1.456,23,1,22.544,1,21.984V2.016   C1,1.456,1.456,1,2.016,1h19.969C22.544,1,23,1.456,23,2.016V21.984z"/><path d="M15.854,8.146c-0.195-0.195-0.512-0.195-0.707,0L12,11.293L8.854,8.146c-0.195-0.195-0.512-0.195-0.707,0   s-0.195,0.512,0,0.707L11.293,12l-3.146,3.146c-0.195,0.195-0.195,0.512,0,0.707C8.244,15.951,8.372,16,8.5,16   s0.256-0.049,0.354-0.146L12,12.707l3.146,3.146C15.244,15.951,15.372,16,15.5,16s0.256-0.049,0.354-0.146   c0.195-0.195,0.195-0.512,0-0.707L12.707,12l3.146-3.146C16.049,8.658,16.049,8.342,15.854,8.146z"/></g></svg>